<svg width="49" height="48" viewBox="0 0 49 48" fill="none" xmlns="http://www.w3.org/2000/svg">
<rect x="0.5" width="48" height="48" rx="4" fill="#D4D4D4"/>
<path d="M35.1667 13.3333H13.8334C12.3667 13.3333 11.1667 14.5333 11.1667 16V32C11.1667 33.4666 12.3667 34.6666 13.8334 34.6666H35.1667C36.6334 34.6666 37.8334 33.4666 37.8334 32V16C37.8334 14.5333 36.6334 13.3333 35.1667 13.3333ZM34.6334 19L25.9134 24.4533C25.0467 25 23.9534 25 23.0867 24.4533L14.3667 19C14.233 18.9249 14.1159 18.8235 14.0225 18.7019C13.9292 18.5803 13.8614 18.441 13.8235 18.2925C13.7855 18.1439 13.778 17.9892 13.8016 17.8377C13.8251 17.6862 13.8791 17.5411 13.9604 17.411C14.0417 17.281 14.1485 17.1689 14.2743 17.0813C14.4002 16.9938 14.5425 16.9327 14.6927 16.9017C14.8428 16.8708 14.9977 16.8706 15.148 16.9012C15.2982 16.9319 15.4406 16.9927 15.5667 17.08L24.5 22.6666L33.4334 17.08C33.5594 16.9927 33.7019 16.9319 33.8521 16.9012C34.0023 16.8706 34.1572 16.8708 34.3074 16.9017C34.4575 16.9327 34.5999 16.9938 34.7257 17.0813C34.8516 17.1689 34.9584 17.281 35.0396 17.411C35.1209 17.5411 35.1749 17.6862 35.1985 17.8377C35.222 17.9892 35.2146 18.1439 35.1766 18.2925C35.1386 18.441 35.0709 18.5803 34.9775 18.7019C34.8841 18.8235 34.7671 18.9249 34.6334 19Z" fill="#202020"/>
</svg>
