<svg width="49" height="48" viewBox="0 0 49 48" fill="none" xmlns="http://www.w3.org/2000/svg">
<rect x="0.5" width="48" height="48" rx="4" fill="#D4D4D4"/>
<path d="M25.8707 10.6668C27.3707 10.6708 28.1321 10.6788 28.7894 10.6975L29.0481 10.7068C29.3467 10.7175 29.6414 10.7308 29.9974 10.7468C31.4161 10.8135 32.3841 11.0375 33.2334 11.3668C34.1134 11.7055 34.8547 12.1641 35.5961 12.9041C36.274 13.5707 36.7987 14.3769 37.1334 15.2668C37.4627 16.1161 37.6867 17.0841 37.7534 18.5041C37.7694 18.8588 37.7827 19.1535 37.7934 19.4535L37.8014 19.7121C37.8214 20.3681 37.8294 21.1295 37.8321 22.6295L37.8334 23.6241V25.3708C37.8367 26.3433 37.8264 27.3159 37.8027 28.2881L37.7947 28.5468C37.7841 28.8468 37.7707 29.1415 37.7547 29.4961C37.6881 30.9161 37.4614 31.8828 37.1334 32.7335C36.7996 33.6238 36.2749 34.4303 35.5961 35.0961C34.9293 35.7739 34.1231 36.2985 33.2334 36.6335C32.3841 36.9628 31.4161 37.1868 29.9974 37.2535C29.681 37.2684 29.3646 37.2817 29.0481 37.2935L28.7894 37.3015C28.1321 37.3201 27.3707 37.3295 25.8707 37.3321L24.8761 37.3335H23.1307C22.1577 37.3368 21.1848 37.3266 20.2121 37.3028L19.9534 37.2948C19.6369 37.2828 19.3204 37.269 19.0041 37.2535C17.5854 37.1868 16.6174 36.9628 15.7667 36.6335C14.8769 36.2993 14.071 35.7746 13.4054 35.0961C12.7268 34.4299 12.2017 33.6236 11.8667 32.7335C11.5374 31.8841 11.3134 30.9161 11.2467 29.4961C11.2319 29.1798 11.2185 28.8633 11.2067 28.5468L11.2001 28.2881C11.1755 27.3159 11.1644 26.3434 11.1667 25.3708V22.6295C11.163 21.6569 11.1728 20.6844 11.1961 19.7121L11.2054 19.4535C11.2161 19.1535 11.2294 18.8588 11.2454 18.5041C11.3121 17.0841 11.5361 16.1175 11.8654 15.2668C12.2002 14.376 12.7264 13.5695 13.4067 12.9041C14.0722 12.2261 14.8776 11.7015 15.7667 11.3668C16.6174 11.0375 17.5841 10.8135 19.0041 10.7468C19.3587 10.7308 19.6547 10.7175 19.9534 10.7068L20.2121 10.6988C21.1843 10.6751 22.1569 10.6649 23.1294 10.6681L25.8707 10.6668ZM24.5001 17.3335C22.7319 17.3335 21.0363 18.0359 19.786 19.2861C18.5358 20.5363 17.8334 22.232 17.8334 24.0001C17.8334 25.7683 18.5358 27.4639 19.786 28.7142C21.0363 29.9644 22.7319 30.6668 24.5001 30.6668C26.2682 30.6668 27.9639 29.9644 29.2141 28.7142C30.4643 27.4639 31.1667 25.7683 31.1667 24.0001C31.1667 22.232 30.4643 20.5363 29.2141 19.2861C27.9639 18.0359 26.2682 17.3335 24.5001 17.3335ZM24.5001 20.0001C25.0253 20.0001 25.5455 20.1034 26.0308 20.3044C26.5162 20.5053 26.9572 20.7999 27.3287 21.1712C27.7002 21.5426 27.9949 21.9835 28.196 22.4688C28.3971 22.9541 28.5006 23.4742 28.5007 23.9995C28.5008 24.5248 28.3974 25.0449 28.1965 25.5303C27.9956 26.0156 27.701 26.4566 27.3296 26.8281C26.9582 27.1996 26.5173 27.4943 26.0321 27.6954C25.5468 27.8965 25.0267 28.0001 24.5014 28.0001C23.4405 28.0001 22.4231 27.5787 21.673 26.8286C20.9228 26.0784 20.5014 25.061 20.5014 24.0001C20.5014 22.9393 20.9228 21.9219 21.673 21.1717C22.4231 20.4216 23.4405 20.0001 24.5014 20.0001M31.5014 15.3335C31.0594 15.3335 30.6354 15.5091 30.3229 15.8216C30.0103 16.1342 29.8347 16.5581 29.8347 17.0001C29.8347 17.4422 30.0103 17.8661 30.3229 18.1787C30.6354 18.4912 31.0594 18.6668 31.5014 18.6668C31.9434 18.6668 32.3673 18.4912 32.6799 18.1787C32.9925 17.8661 33.1681 17.4422 33.1681 17.0001C33.1681 16.5581 32.9925 16.1342 32.6799 15.8216C32.3673 15.5091 31.9434 15.3335 31.5014 15.3335Z" fill="#202020"/>
</svg>
