<svg width="33" height="32" viewBox="0 0 33 32" fill="none" xmlns="http://www.w3.org/2000/svg">
<path d="M26.8704 2.66663C27.6562 2.66663 28.4099 2.97879 28.9655 3.53446C29.5212 4.09012 29.8334 4.84376 29.8334 5.62959V26.3703C29.8334 27.1562 29.5212 27.9098 28.9655 28.4655C28.4099 29.0211 27.6562 29.3333 26.8704 29.3333H6.12965C5.34382 29.3333 4.59018 29.0211 4.03452 28.4655C3.47886 27.9098 3.16669 27.1562 3.16669 26.3703V5.62959C3.16669 4.84376 3.47886 4.09012 4.03452 3.53446C4.59018 2.97879 5.34382 2.66663 6.12965 2.66663H26.8704ZM26.1297 25.6296V17.7777C26.1297 16.4968 25.6208 15.2684 24.7151 14.3627C23.8094 13.4569 22.5809 12.9481 21.3 12.9481C20.0408 12.9481 18.5741 13.7185 17.863 14.874V13.2296H13.7296V25.6296H17.863V18.3259C17.863 17.1851 18.7815 16.2518 19.9222 16.2518C20.4723 16.2518 20.9999 16.4703 21.3888 16.8593C21.7778 17.2483 21.9963 17.7758 21.9963 18.3259V25.6296H26.1297ZM8.91483 10.9037C9.57493 10.9037 10.208 10.6414 10.6747 10.1747C11.1415 9.70793 11.4037 9.07487 11.4037 8.41477C11.4037 7.037 10.2926 5.91107 8.91483 5.91107C8.25081 5.91107 7.61398 6.17485 7.14445 6.64439C6.67491 7.11392 6.41113 7.75075 6.41113 8.41477C6.41113 9.79255 7.53706 10.9037 8.91483 10.9037ZM10.9741 25.6296V13.2296H6.87039V25.6296H10.9741Z" fill="#202020"/>
</svg>
