<svg width="49" height="48" viewBox="0 0 49 48" fill="none" xmlns="http://www.w3.org/2000/svg">
<rect x="0.5" width="48" height="48" rx="4" fill="#D4D4D4"/>
<path d="M34.8704 10.6667C35.6562 10.6667 36.4098 10.9789 36.9655 11.5345C37.5212 12.0902 37.8333 12.8438 37.8333 13.6296V34.3704C37.8333 35.1562 37.5212 35.9099 36.9655 36.4655C36.4098 37.0212 35.6562 37.3334 34.8704 37.3334H14.1296C13.3438 37.3334 12.5902 37.0212 12.0345 36.4655C11.4788 35.9099 11.1667 35.1562 11.1667 34.3704V13.6296C11.1667 12.8438 11.4788 12.0902 12.0345 11.5345C12.5902 10.9789 13.3438 10.6667 14.1296 10.6667H34.8704ZM34.1296 33.6297V25.7778C34.1296 24.4969 33.6208 23.2685 32.7151 22.3627C31.8093 21.457 30.5809 20.9482 29.3 20.9482C28.0407 20.9482 26.5741 21.7185 25.863 22.8741V21.2296H21.7296V33.6297H25.863V26.3259C25.863 25.1852 26.7815 24.2519 27.9222 24.2519C28.4723 24.2519 28.9998 24.4704 29.3888 24.8594C29.7778 25.2483 29.9963 25.7759 29.9963 26.3259V33.6297H34.1296ZM16.9148 18.9037C17.5749 18.9037 18.208 18.6415 18.6747 18.1747C19.1415 17.708 19.4037 17.0749 19.4037 16.4148C19.4037 15.0371 18.2926 13.9111 16.9148 13.9111C16.2508 13.9111 15.614 14.1749 15.1444 14.6444C14.6749 15.114 14.4111 15.7508 14.4111 16.4148C14.4111 17.7926 15.537 18.9037 16.9148 18.9037ZM18.9741 33.6297V21.2296H14.8704V33.6297H18.9741Z" fill="#202020"/>
</svg>
