<svg width="100" height="67" viewBox="0 0 100 67" fill="none" xmlns="http://www.w3.org/2000/svg">
<g id="Group 1">
<path id="Rectangle 9" d="M26.3472 0.39917L100 25.9681L76.0479 65.6088L48.6826 47.3453L44.8502 24.1118L26.3472 0.39917Z" fill="#FFF968"/>
<path id="Rectangle 8" d="M0 30.1038L26.8263 8.36328L48.0839 34.0519V54.3514H51.8563L63.8324 62.555L22.9341 66.2676L0 30.1038Z" fill="#D4D4D4"/>
<path id="Union" fill-rule="evenodd" clip-rule="evenodd" d="M9.21704 13.9321C8.65731 13.9321 8.20355 14.3859 8.20355 14.9456V55.0744C8.20355 55.6341 8.65731 56.0878 9.21704 56.0878H88.8668C89.4265 56.0878 89.8803 55.6341 89.8803 55.0744V14.9456C89.8803 14.3859 89.4265 13.9321 88.8668 13.9321H9.21704ZM50.866 53.4531C50.5862 53.4531 50.3593 53.2262 50.3593 52.9464V17.0736C50.3593 16.7937 50.5862 16.5669 50.866 16.5669H86.7388C87.0187 16.5669 87.2456 16.7937 87.2456 17.0736V31.8685C87.2456 32.1484 87.0187 32.3752 86.7388 32.3752H69.3089C69.0291 32.3752 68.8022 32.6021 68.8022 32.882V34.5032C68.8022 34.7831 69.0291 35.01 69.3089 35.01H86.7388C87.0187 35.01 87.2456 35.2368 87.2456 35.5167V43.7248C87.2456 44.0047 87.0187 44.2316 86.7388 44.2316H69.3092C69.0293 44.2316 68.8024 44.4584 68.8024 44.7383V52.9464C68.8024 53.2262 68.5755 53.4531 68.2957 53.4531H50.866ZM29.7882 35.0139C29.5083 35.0139 29.2814 34.787 29.2814 34.5071V17.0736C29.2814 16.7937 29.0546 16.5669 28.7747 16.5669H11.345C11.0652 16.5669 10.8383 16.7937 10.8383 17.0736V52.9464C10.8383 53.2262 11.0652 53.4531 11.345 53.4531H47.2178C47.4977 53.4531 47.7246 53.2262 47.7246 52.9464V35.5206C47.7246 35.2407 47.4977 35.0139 47.2178 35.0139H29.7882Z" fill="#333333"/>
</g>
</svg>
