<svg width="33" height="32" viewBox="0 0 33 32" fill="none" xmlns="http://www.w3.org/2000/svg">
<path d="M27.1667 5.33337H5.83335C4.36669 5.33337 3.16669 6.53337 3.16669 8.00004V24C3.16669 25.4667 4.36669 26.6667 5.83335 26.6667H27.1667C28.6334 26.6667 29.8334 25.4667 29.8334 24V8.00004C29.8334 6.53337 28.6334 5.33337 27.1667 5.33337ZM26.6334 11L17.9134 16.4534C17.0467 17 15.9534 17 15.0867 16.4534L6.36669 11C6.23299 10.925 6.11591 10.8236 6.02254 10.702C5.92917 10.5804 5.86144 10.4411 5.82345 10.2925C5.78547 10.144 5.77802 9.98929 5.80156 9.83778C5.8251 9.68628 5.87914 9.54112 5.9604 9.41111C6.04166 9.28109 6.14845 9.16891 6.27432 9.08137C6.40019 8.99382 6.54252 8.93272 6.69268 8.90177C6.84285 8.87082 6.99773 8.87066 7.14796 8.9013C7.29819 8.93195 7.44064 8.99275 7.56669 9.08004L16.5 14.6667L25.4334 9.08004C25.5594 8.99275 25.7019 8.93195 25.8521 8.9013C26.0023 8.87066 26.1572 8.87082 26.3074 8.90177C26.4575 8.93272 26.5999 8.99382 26.7257 9.08137C26.8516 9.16891 26.9584 9.28109 27.0396 9.41111C27.1209 9.54112 27.1749 9.68628 27.1985 9.83778C27.222 9.98929 27.2146 10.144 27.1766 10.2925C27.1386 10.4411 27.0709 10.5804 26.9775 10.702C26.8841 10.8236 26.7671 10.925 26.6334 11Z" fill="#202020"/>
</svg>
