<svg width="624" height="176" viewBox="0 0 624 176" fill="none" xmlns="http://www.w3.org/2000/svg">
<mask id="mask0_83_367" style="mask-type:alpha" maskUnits="userSpaceOnUse" x="0" y="0" width="624" height="176">
<path fill-rule="evenodd" clip-rule="evenodd" d="M0 39.0954V136.868C0 159.265 14.0046 175.159 39.4028 175.159C65.0383 175.159 78.8056 159.265 78.8056 136.868V39.0954C78.8056 16.6992 65.0383 0.805054 39.4028 0.805054C14.0046 0.805054 0 16.6992 0 39.0954ZM35.1012 22.3612C30.2039 22.7958 26.5812 27.1761 27.0097 32.1446L36.8364 146.099C37.2648 151.067 41.5822 154.743 46.4795 154.308C51.3768 153.873 54.9996 149.493 54.5711 144.525L44.7444 30.5705C44.3159 25.6019 39.9985 21.9265 35.1012 22.3612Z" fill="#FCFAFA"/>
<path d="M125.605 175.195C99.7318 175.195 87.8635 157.133 87.8635 134.496V110.896H118.009V134.978C118.009 142.684 119.671 147.982 125.605 147.982C131.776 147.982 133.675 143.166 133.675 135.7V132.088C133.675 118.386 124.795 108.456 116.667 99.3648C116.08 98.7092 115.498 98.058 114.923 97.4101L110.888 92.8345C96.6461 76.4587 87.6262 63.4545 87.6262 41.0582V39.8541C87.6262 16.4946 100.444 0.841272 125.605 0.841272C151.24 0.841272 163.583 16.4946 163.583 39.3725V59.3605H133.438V39.3725C133.438 32.8703 131.776 28.0539 125.842 28.0539C120.145 28.0539 118.246 32.6295 118.246 37.6867V40.0949C118.246 49.2461 122.756 55.989 130.827 64.8994L133.913 68.2709C150.766 86.814 164.295 102.949 164.295 130.402V132.088C164.295 158.338 150.528 175.195 125.605 175.195Z" fill="#FCFAFA"/>
<path d="M168.702 31.9071V3.7311H243.235V31.9071H221.397V172.305H190.539V31.9071H168.702Z" fill="#FCFAFA"/>
<path d="M252.726 3.7311H283.583V172.305H252.726V3.7311Z" fill="#FCFAFA"/>
<path d="M297.927 172.305V3.7311H324.75L346.587 81.0343L346.825 3.7311H376.021V172.305H351.572L327.123 95.7243V172.305H297.927Z" fill="#FCFAFA"/>
<path fill-rule="evenodd" clip-rule="evenodd" d="M384.725 172.305L407.038 3.7311H445.254L467.566 172.305H436.234L433.623 142.443H417.482L414.871 172.305H384.725ZM419.618 116.194H431.486L425.552 45.393L419.618 116.194Z" fill="#FCFAFA"/>
<path d="M461.237 31.9071V3.7311H535.77V31.9071H513.932V172.305H483.075V31.9071H461.237Z" fill="#FCFAFA"/>
<path fill-rule="evenodd" clip-rule="evenodd" d="M545.194 136.868V39.0954C545.194 16.6992 559.199 0.805054 584.597 0.805054C610.233 0.805054 624 16.6992 624 39.0954V136.868C624 159.265 610.233 175.159 584.597 175.159C559.199 175.159 545.194 159.265 545.194 136.868ZM571.867 31.1373C571.439 26.1687 575.062 21.7885 579.959 21.3538C584.856 20.9191 589.174 24.5945 589.602 29.5631L599.429 143.517C599.857 148.486 596.235 152.866 591.337 153.301C586.44 153.735 582.123 150.06 581.694 145.091L571.867 31.1373Z" fill="#FCFAFA"/>
</mask>
<g mask="url(#mask0_83_367)">
<rect x="-36.5938" y="-48.8253" width="669.452" height="447.845" fill="#FCFAFA"/>
</g>
</svg>
