<svg width="33" height="32" viewBox="0 0 33 32" fill="none" xmlns="http://www.w3.org/2000/svg">
<path d="M17.8707 2.66675C19.3707 2.67075 20.1321 2.67875 20.7894 2.69741L21.0481 2.70675C21.3467 2.71741 21.6414 2.73075 21.9974 2.74675C23.4161 2.81341 24.3841 3.03741 25.2334 3.36675C26.1134 3.70541 26.8547 4.16408 27.5961 4.90408C28.274 5.57061 28.7987 6.37687 29.1334 7.26675C29.4627 8.11608 29.6867 9.08408 29.7534 10.5041C29.7694 10.8587 29.7827 11.1534 29.7934 11.4534L29.8014 11.7121C29.8214 12.3681 29.8294 13.1294 29.8321 14.6294L29.8334 15.6241V17.3707C29.8367 18.3433 29.8264 19.3158 29.8027 20.2881L29.7947 20.5467C29.7841 20.8467 29.7707 21.1414 29.7547 21.4961C29.6881 22.9161 29.4614 23.8827 29.1334 24.7334C28.7996 25.6238 28.2749 26.4302 27.5961 27.0961C26.9293 27.7738 26.1231 28.2984 25.2334 28.6334C24.3841 28.9627 23.4161 29.1868 21.9974 29.2534C21.681 29.2683 21.3646 29.2816 21.0481 29.2934L20.7894 29.3014C20.1321 29.3201 19.3707 29.3294 17.8707 29.3321L16.8761 29.3334H15.1307C14.1577 29.3368 13.1848 29.3265 12.2121 29.3027L11.9534 29.2948C11.6369 29.2828 11.3204 29.269 11.0041 29.2534C9.58539 29.1868 8.61739 28.9627 7.76672 28.6334C6.87695 28.2992 6.07101 27.7745 5.40539 27.0961C4.72678 26.4298 4.20169 25.6235 3.86672 24.7334C3.53739 23.8841 3.31339 22.9161 3.24672 21.4961C3.23187 21.1797 3.21854 20.8633 3.20672 20.5467L3.20006 20.2881C3.17549 19.3158 3.16437 18.3433 3.16672 17.3707V14.6294C3.163 13.6569 3.17278 12.6843 3.19606 11.7121L3.20539 11.4534C3.21606 11.1534 3.22939 10.8587 3.24539 10.5041C3.31206 9.08408 3.53606 8.11741 3.86539 7.26675C4.20021 6.37595 4.72635 5.56945 5.40672 4.90408C6.07218 4.22605 6.87758 3.7014 7.76672 3.36675C8.61739 3.03741 9.58406 2.81341 11.0041 2.74675C11.3587 2.73075 11.6547 2.71741 11.9534 2.70675L12.2121 2.69875C13.1843 2.67506 14.1569 2.66484 15.1294 2.66808L17.8707 2.66675ZM16.5001 9.33342C14.7319 9.33342 13.0363 10.0358 11.786 11.286C10.5358 12.5363 9.83339 14.232 9.83339 16.0001C9.83339 17.7682 10.5358 19.4639 11.786 20.7141C13.0363 21.9644 14.7319 22.6667 16.5001 22.6667C18.2682 22.6667 19.9639 21.9644 21.2141 20.7141C22.4643 19.4639 23.1667 17.7682 23.1667 16.0001C23.1667 14.232 22.4643 12.5363 21.2141 11.286C19.9639 10.0358 18.2682 9.33342 16.5001 9.33342ZM16.5001 12.0001C17.0253 12 17.5455 12.1034 18.0308 12.3043C18.5162 12.5052 18.9572 12.7998 19.3287 13.1712C19.7002 13.5426 19.9949 13.9835 20.196 14.4687C20.3971 14.954 20.5006 15.4741 20.5007 15.9994C20.5008 16.5247 20.3974 17.0449 20.1965 17.5302C19.9956 18.0155 19.701 18.4565 19.3296 18.828C18.9582 19.1995 18.5173 19.4942 18.0321 19.6953C17.5468 19.8964 17.0267 20 16.5014 20.0001C15.4405 20.0001 14.4231 19.5787 13.673 18.8285C12.9228 18.0784 12.5014 17.0609 12.5014 16.0001C12.5014 14.9392 12.9228 13.9218 13.673 13.1717C14.4231 12.4215 15.4405 12.0001 16.5014 12.0001M23.5014 7.33342C23.0594 7.33342 22.6354 7.50901 22.3229 7.82157C22.0103 8.13413 21.8347 8.55805 21.8347 9.00008C21.8347 9.44211 22.0103 9.86603 22.3229 10.1786C22.6354 10.4912 23.0594 10.6667 23.5014 10.6667C23.9434 10.6667 24.3673 10.4912 24.6799 10.1786C24.9925 9.86603 25.1681 9.44211 25.1681 9.00008C25.1681 8.55805 24.9925 8.13413 24.6799 7.82157C24.3673 7.50901 23.9434 7.33342 23.5014 7.33342Z" fill="#202020"/>
</svg>
